<?xml version="1.0" encoding="utf-8"?>
<!-- Generator: Adobe Illustrator 15.1.0, SVG Export Plug-In  -->
<!DOCTYPE svg PUBLIC "-//W3C//DTD SVG 1.1//EN" "http://www.w3.org/Graphics/SVG/1.1/DTD/svg11.dtd" [
	<!ENTITY ns_flows "http://ns.adobe.com/Flows/1.0/">
]>
<svg version="1.1"
	 xmlns="http://www.w3.org/2000/svg" xmlns:xlink="http://www.w3.org/1999/xlink" xmlns:a="http://ns.adobe.com/AdobeSVGViewerExtensions/3.0/"
	 x="0px" y="0px" width="1000px" height="1000px" viewBox="0 -50.417 1000 1000"
	 overflow="visible" enable-background="new 0 -50.417 1000 1000" xml:space="preserve">
<defs>
</defs>
<path fill="#005DAA" d="M458.415,873.671l-5.344,23.979h-22.293l16.492-74.216h22.902c7.176,0,11.758,0.459,15.576,1.683
	c10.536,3.209,15.424,10.378,15.424,18.776c0,12.363-7.331,19.854-18.324,23.36v0.307c1.831,2.142,6.87,12.666,14.657,30.09h-24.127
	c-7.938-19.248-9.772-23.979-11.452-23.979H458.415z M472.31,840.538h-6.412l-3.664,16.039h5.951c6.873,0,11.912-3.521,11.912-9.328
	C480.097,844.351,478.419,840.538,472.31,840.538z"/>
<path fill="#005DAA" d="M581.944,867.716c-2.287,9.769-5.496,16.645-10.685,21.522c-8.247,7.637-19.85,9.929-33.285,9.929
	c-10.236,0-18.327-2.906-23.365-8.091c-4.126-4.126-6.11-9.466-6.11-15.889c0-2.741,0.307-5.643,1.072-8.695l9.617-43.059h22.6
	l-9.773,43.059c-0.307,1.224-0.453,2.438-0.453,3.511c0,3.054,0.912,5.35,2.136,7.023c1.834,2.599,5.189,3.667,9.008,3.667
	c4.575,0,8.247-1.224,10.988-3.512c2.75-2.447,5.047-5.954,6.11-10.689l9.622-43.059h22.6L581.944,867.716z"/>
<path fill="#005DAA" d="M659.358,893.974c-9.918,3.676-20.608,5.193-30.229,5.193c-23.975,0-35.889-14.962-35.889-34.504
	c0-26.423,20.156-42.458,47.798-42.458c9.773,0,18.32,1.989,25.957,4.74l-4.119,17.405c-7.179-3.511-14.208-5.198-20.921-5.198
	c-18.327,0-25.043,12.523-25.043,23.828c0,10.992,5.345,18.63,17.254,18.63c1.678,0,3.814-0.156,5.955-0.605l5.193-23.218h22.293
	L659.358,893.974z"/>
<path fill="#005DAA" d="M730.363,858.104v0.293c5.954,2.287,9.468,6.716,9.468,12.831c0,13.894-13.282,26.422-35.579,26.422h-32.831
	l16.498-74.216h29.011c15.721,0,24.272,6.564,24.272,17.25C741.202,848.321,737.688,854.583,730.363,858.104z M708.987,867.102
	h-8.402l-3.209,14.353h8.096c7.944,0,11.458-4.584,11.458-8.549C716.93,869.702,714.942,867.102,708.987,867.102z M712.499,839.621
	h-5.647l-3.211,13.738h5.806c5.643,0,9.163-4.428,9.163-8.397C718.609,841.596,716.166,839.621,712.499,839.621z"/>
<path fill="#005DAA" d="M785.629,870.462l-6.106,27.188h-23.667l6.262-27.948l-17.406-46.268h22.443l5.341,15.577
	c1.524,4.423,2.755,8.695,4.126,13.89h0.305c3.512-6.262,6.413-10.837,8.4-13.748l10.383-15.719h23.512L785.629,870.462z"/>
<polygon fill="#005DAA" points="254.081,618.206 247.762,770.502 289.658,770.502 295.977,618.206 "/>
<path fill="#005DAA" d="M530.672,640.603c16.879,0,34.055,9.348,39.703,12.409l5.437,2.962l6.179-35.99l-5.927-0.715
	c-8.082-0.967-23.127-2.787-46.891-2.787c-38.007,0-63.309,17.575-64.438,44.782c-1.334,32.203,23.826,42.333,37.333,47.771
	l10.209,3.96c14.939,5.657,27.848,10.571,27.531,18.189c-0.577,13.881-16.851,16.92-23.062,16.92
	c-22.848,0-36.592-10.475-43.201-15.512l-7.669-5.795l-0.865,7.468l-3.969,32.52l8.937,1.562
	c11.035,1.958,26.162,4.635,44.334,4.635c31.029,0,67.803-12.23,69.233-46.685c1.402-34.004-25.245-43.851-38.058-48.586
	l-9.36-3.062c-16.113-5.023-28.425-9.571-28.051-18.46C508.637,642.625,522.476,640.603,530.672,640.603z"/>
<path fill="#005DAA" d="M728.138,618.206H591.517l-2.998,27.275c0,0,39.624-2.081,47.869-2.517
	c-0.396,9.576-5.297,127.538-5.297,127.538h42.306c0,0,4.96-119.548,5.3-127.584c7.183,0.371,48.313,2.484,48.313,2.484
	L728.138,618.206z"/>
<path fill="#005DAA" d="M46.391,746.752c0.41-9.787,5.34-128.547,5.34-128.547L0,618.214l8.777,25.575L3.516,770.502h104.058
	l1.192-28.531C108.766,741.971,55.287,746.074,46.391,746.752z"/>
<path fill="#005DAA" d="M419.102,618.206c0,0,0.849,90.517,0.931,99.938c-14.797-24.053-61.473-99.938-61.473-99.938l-49.499,0.009
	l8.852,25.79l-5.249,126.498h31.348c0,0,0.882-81.28,0.996-91.819c14.436,22.93,57.82,91.819,57.82,91.819h42.013l6.313-152.297
	H419.102z"/>
<path fill="#005DAA" d="M235.479,644.198l1.072-25.992l-120.742,0.009l8.837,25.763l-5.248,126.525H232.49l1.18-28.472
	c0,0-62.353,4.185-71.397,4.776c0.322-7.798,1.538-36.971,1.795-43.168c6.851,0,47.392,0,47.392,0l0.981-23.347
	c0,0-39.457,0-47.407,0c0.299-7.146,1.344-32.336,1.604-38.589C174.145,641.988,235.479,644.198,235.479,644.198z"/>
<path fill="#005DAA" d="M853.214,644.198l1.077-25.992l-120.674,0.009l8.783,25.584l-5.258,126.704h113.078l1.189-28.472
	c0,0-62.351,4.185-71.404,4.776c0.321-7.798,1.536-36.971,1.804-43.168c6.852,0,47.396,0,47.396,0l0.976-23.347
	c0,0-39.466,0-47.408,0c0.298-7.146,1.341-32.336,1.604-38.589C791.872,641.988,853.214,644.198,853.214,644.198z"/>
<path fill="#005DAA" d="M989.702,747.156c-2.897,0-9.273-13.037-12.331-19.295c-2.829-5.799-5.77-11.795-8.967-16.704
	c-4.165-6.464-10.104-12.68-16.498-17.447c1.82-0.577,4.281-1.356,4.281-1.356c13.566-4.222,29.737-16.438,30.58-36.925
	c0.056-1.247,0.056-2.43-0.016-3.612c-0.396-7.531-3.087-13.927-8.033-19.079c-9.425-9.777-26.368-14.531-51.779-14.531
	l-67.049,0.009l8.734,25.474l-5.256,126.814h41.895c0,0,2.406-57.934,2.741-66.172c3.342,0.679,7.474,1.88,10.227,4.03
	c5.453,4.281,9.187,13.555,13.124,23.364c6.954,17.277,15.582,38.777,39.15,38.777h28.516l0.979-23.347H989.702z M918.823,680.292
	c0,0-5.441,0-9.819,0c0.296-7.184,1.357-32.671,1.604-38.745c4.8,0,13.328,0,13.328,0c7.282,0,13.986,2.476,17.956,6.592
	c2.397,2.494,3.697,5.479,3.88,8.921c0.027,0.495,0.027,1.009,0.01,1.531C945.154,673.499,931.37,680.292,918.823,680.292z"/>
<path fill="#005DAA" d="M507.061,201.796c96.191-4.357,162.004,10.444,176.031,39.586c10.134,31.559-12.464,80.363-69.113,149.146
	c-44.388,53.904-104.489,114.29-173.035,181.368h172.673c54.715-68.573,99.465-131.984,130.604-191.994
	c39.256-75.649,59.382-143.494,44.869-173.874c-44.282-79.36-271.969-89.31-510.436,16.095
	c-14.307,6.314-83.104,35.543-106.5,47.382l0.365,0.802C284.013,231.343,405.949,206.37,507.061,201.796z"/>
<path fill="#005DAA" d="M666.821,249.766c-10.319-17.735-64.45-34.819-158.973-30.539c-105.684,4.783-196.068,19.764-302.218,50.092
	l0.174,0.492c89.303-18.155,139.641-27.048,200.757-31.94c9.326,22.714,94.832,230.944,100.082,243.735
	c2.74-2.796,5.458-5.574,8.131-8.327c-12.871-31.346-83.739-203.939-97.004-236.25c15.677-1.111,32.231-1.987,50.423-2.72
	c9.277,22.749,76.565,187.69,82.231,201.586c2.709-2.911,5.386-5.801,8.013-8.666c-11.858-29.065-66.443-162.872-78.873-193.349
	c2.102-0.071,4.221-0.148,6.372-0.219c13-0.432,27.986,0.055,43.246,1.087c11.883,27.524,60.409,139.975,65.383,151.487
	c1.943-2.326,3.883-4.644,5.776-6.94c0.637-0.768,1.261-1.531,1.875-2.29l-60.991-141.331c15.852,1.347,31.506,3.19,45.089,5.122
	c11.909,26.883,39.391,88.956,44.016,99.399c2.513-3.58,4.878-7.04,7.085-10.389c-7.805-17.629-27.355-61.783-38.572-87.103
	c4.557,0.738,8.728,1.473,12.399,2.177c12.341,2.37,42.439,9.597,55.371,25.414l0.434,0.452l0.094-0.393
	C669.454,260.87,667.479,252.2,666.821,249.766z"/>
<path fill="#005DAA" d="M877.58,69.721c-37.979-26.988-84.25-46.524-137.535-58.054C630.508-12.039,503.407,0.636,382.149,47.366
	C231.815,105.303,111.654,208.749,60.724,324.094c-31.176,70.603-34.178,140.432-8.673,201.932
	c11.097,26.757,27.358,51.286,48.331,72.903l0.691-0.545c-13.09-18.221-23.392-38.006-30.625-58.799
	C55.86,497.618,53.892,452.853,64.6,406.524c10.348-44.759,32.03-89.087,64.446-131.747
	c66.692-87.768,171.281-158.692,294.508-199.704c54.583-18.168,110.217-29.583,165.358-33.926c53.281-4.2,104.78-1.72,153.085,7.371
	c96.979,18.253,175.123,62.62,220.04,124.923l0.779-0.412C945.575,132.419,916.896,97.662,877.58,69.721z"/>
<path fill="#005DAA" d="M958.801,224.353c-7.771-56.589-67.959-101.299-121.685-124.271l-0.453,0.735
	c43.445,33.022,66.354,60.155,76.595,90.708c19.73,58.875,4.686,127.345-43.527,198.015
	c-44.692,65.531-116.75,130.16-202.882,181.994l-0.614,0.362h107.542C841.164,524.384,893.891,463.538,926.29,395.9
	C954.391,337.234,965.932,276.31,958.801,224.353z"/>
</svg>
