<svg width="640" height="520" xmlns="http://www.w3.org/2000/svg" xmlns:xlink="http://www.w3.org/1999/xlink">

 <g>
  <title>background</title>
  <rect fill="none" id="canvas_background" height="522" width="642" y="-1" x="-1"/>
 </g>
 <g>
  <title>Layer 1</title>
  <path d="m0,20.05l640,0l0,480l-640,0l0,-480z" stroke-width="8.1" fill="#fff" id="rect6943"/>
  <rect fill-rule="evenodd" fill="#fff" id="rect6703"/>
  <rect fill-rule="evenodd" fill="#c00" y="212" height="96" width="640" id="a"/>
  <use x="25.333333" y="-20" xlink:href="#a" transform="matrix(0,0.75,-1,0,560,0) " height="300" width="600" id="use6706"/>
  <path d="m355.2,146.6c3,-4.8 1.2,-8 -3.4,-8.9c0,0 -14.9,4.8 -31,5.3c-16,0.5 -35,-4 -35,-4c-3.5,2.1 -2.7,7.2 -1,10.4c0,0 16.8,5.6 36,5a111,111 0 0 0 30.1,-5.5c3.7,-1.2 4.3,-2.2 4.3,-2.3z" stroke-width="0.5" stroke="#000" fill-rule="evenodd" fill="#ebeae3" id="path6708"/>
  <path d="m320,357.6l-30.9,-64.2l-70.9,5.4l40,-58.8l-40,-58.8l71,5.4l30.8,-64.1l30.9,64l70.9,-5.3l-40,58.8l40,58.8l-71,-5.4l-30.8,64.2z" stroke-width="1.6" stroke="#161111" fill="#fff" id="path6710"/>
  <path d="m319.5,122.2c38.8,6.4 37.4,8.2 37.4,8.2l10.1,-30.2s1.1,-6 -1.7,-9.6s-10.5,-1.6 -10.5,-1.6s-1,-4.9 -4.5,-6c-3.4,-1.2 -16,4.5 -20,5.8c-4,1.3 -6,2.5 -11.5,2.4c-5.5,0 -15.4,-5 -17.3,-6c-1.7,-0.9 -4.4,-1.8 -6.9,-1.7c-2.4,0 -5,0.7 -6.3,2.4c-1.2,1.7 -1.2,3.9 -1.2,3.9s-2,-1.3 -5.2,-1.3s-5,0.4 -6.5,2.1c-1.5,1.7 -3.4,6.5 -3.4,6.5l3.6,8.2l0.2,11.3l7.5,12l36.2,-6.4z" stroke-width="1.3" stroke="#000" fill-rule="evenodd" fill="#b02320" id="path6712"/>
  <path d="m355.7,139.3s2,2.3 1.9,3.2c-0.1,0.8 -1,1.5 -1,1.5s0.7,0.6 0.5,1.5c-0.1,1 -1.4,1 -1.4,1s0.3,0.8 -0.5,1.2c-0.7,0.4 -3.8,1 -3.8,1s-15,-4.2 -31,-4.2s-35,5.2 -35,5.2s-2,-0.7 -2,-2c-0.2,-1.2 0.1,-2.1 0.1,-2.1s-1,0 -1.3,-0.9c-0.4,-1.3 0.1,-2.3 0.1,-2.3s-0.7,0.2 0.1,-1.5c0.6,-1.3 1.5,-1.7 1.5,-1.7s16.8,-6 36,-6.1c19.1,0 35.8,6 35.8,6.2z" stroke-width="0.5" stroke="#000" fill-rule="evenodd" fill="#ebeae3" id="path6714"/>
  <path d="m276.2,101.5s-0.6,-2.2 0.8,-4.1a4.3,4.3 0 0 1 4.7,-1.4c0.8,0.4 0.7,1.3 1.7,1.5c1,0.3 1.8,-0.5 1.8,-0.5" stroke-width="1.1" stroke="#000" fill="none" id="path6716"/>
  <path d="m369.8,106.6l-5.8,12l-2.3,0.4s-1.4,-0.8 -5.4,-0.5c-2.8,0.2 -3.7,1 -3.7,1l5.2,-12s0.4,2.5 1,4c0.8,2 3.7,3.7 3.7,3.7s0.4,-2.3 -0.4,-5a55.9,55.9 0 0 0 -2.8,-7.3l10.5,3.7z" stroke-width="1.2" stroke="#000" fill-rule="evenodd" fill-opacity="0.9" fill="#fc0" id="path6718"/>
  <path d="m316.5,69.2l6.5,0l0,27.7l-6.5,0l0,-27.7z" stroke-width="1.2" stroke-linejoin="round" stroke="#121116" fill="#121116" id="path6720"/>
  <path d="m276.6,120.2l4.1,9s17.9,-7 38.9,-6.8c31.5,0.2 40.5,6.5 40.5,6.5l4.6,-11.1l-3.5,2l-3.6,2.3l-4,1.5l-5,-0.3l-4.4,-3.2l-2.2,-4.7l-3.7,3.4l-6.6,1.4l-6.4,-1.6l-5.6,-7.1s-4.2,7.9 -9.6,8.4c-7.7,0.6 -12.1,-3.7 -12.1,-3.7s-2.9,6.4 -7.6,7.5c-7.5,1.9 -13.7,-3.5 -13.8,-3.5z" stroke="#000" fill-rule="evenodd" fill="#f6ca1f" id="path6722"/>
  <g stroke-width="2.2" id="g6842">
   <path d="m348.4,65.7c0,1.8 -1.4,3.4 -3.3,3.4a3.4,3.4 0 0 1 -3.4,-3.4a3.4,3.4 0 0 1 3.4,-3.5a3.4,3.4 0 0 1 3.3,3.4" stroke-width="1.2" stroke-linejoin="round" stroke="#1e1e1e" fill="#eee" id="path6724"/>
   <path d="m343.5,67.4s2.7,0 3,-1.1c0.3,-1.2 -0.2,-2.6 -0.2,-2.6s1.3,1.4 1,2.5c-0.4,1.1 -0.8,1.4 -1.7,1.7a3,3 0 0 1 -2,-0.5l-0.1,0z" fill-rule="evenodd" fill="#a3afb8" id="path6726"/>
   <path d="m340.3,69.5c0,1.8 -1.5,3.4 -3.4,3.4a3.4,3.4 0 0 1 -3.4,-3.4a3.4,3.4 0 0 1 3.5,-3.5a3.4,3.4 0 0 1 3.4,3.3" stroke-width="1.2" stroke-linejoin="round" stroke="#1e1e1e" fill="#eee" id="path6728"/>
   <path d="m335.3,71.2s2.8,0 3,-1.1c0.3,-1.1 -0.2,-2.6 -0.2,-2.6s1.3,1.5 1,2.6c-0.4,1 -0.8,1.4 -1.7,1.6a3,3 0 0 1 -2,-0.5l-0.1,0z" fill-rule="evenodd" fill="#a3afb8" id="path6730"/>
   <path d="m358,63.4c0,1.9 -1.6,3.4 -3.4,3.4a3.4,3.4 0 0 1 -3.4,-3.4a3.4,3.4 0 0 1 3.3,-3.4a3.4,3.4 0 0 1 3.4,3.4" stroke-width="1.2" stroke-linejoin="round" stroke="#1e1e1e" fill="#eee" id="path6732"/>
   <path d="m353,65.2s2.7,0 3,-1.2c0.3,-1.1 -0.2,-2.5 -0.2,-2.5s1.3,1.4 1,2.5c-0.4,1.1 -0.8,1.4 -1.7,1.6a3,3 0 0 1 -2,-0.4l-0.1,0z" fill-rule="evenodd" fill="#a3afb8" id="path6734"/>
   <path d="m368.6,65.6c0,1.8 -1.5,3.4 -3.3,3.4a3.4,3.4 0 0 1 -3.4,-3.4a3.4,3.4 0 0 1 3.4,-3.4a3.4,3.4 0 0 1 3.3,3.3" stroke-width="1.2" stroke-linejoin="round" stroke="#1e1e1e" fill="#eee" id="path6736"/>
   <path d="m363.7,67.3s2.7,0 3,-1.1c0.3,-1.2 -0.2,-2.6 -0.2,-2.6s1.3,1.4 1,2.6c-0.4,1 -0.8,1.3 -1.7,1.6a3,3 0 0 1 -2.1,-0.5z" fill-rule="evenodd" fill="#a3afb8" id="path6738"/>
   <path d="m376.8,72.3c0,1.8 -1.5,3.4 -3.4,3.4a3.4,3.4 0 0 1 -3.4,-3.4a3.4,3.4 0 0 1 3.4,-3.4a3.4,3.4 0 0 1 3.4,3.3" stroke-width="1.2" stroke-linejoin="round" stroke="#1e1e1e" fill="#eee" id="path6740"/>
   <path d="m371.9,74s2.7,0 3,-1.1c0.2,-1.1 -0.2,-2.6 -0.2,-2.6s1.3,1.5 0.9,2.6c-0.4,1 -0.7,1.4 -1.7,1.6c-0.6,0.1 -1.5,-0.1 -2,-0.5z" fill-rule="evenodd" fill="#a3afb8" id="path6742"/>
   <path d="m380.3,83.3c0,1.9 -1.5,3.4 -3.4,3.4a3.4,3.4 0 0 1 -3.3,-3.4a3.4,3.4 0 0 1 3.3,-3.4a3.4,3.4 0 0 1 3.4,3.4" stroke-width="1.2" stroke-linejoin="round" stroke="#1e1e1e" fill="#eee" id="path6744"/>
   <path d="m375.4,85s2.7,0 3,-1.1c0.2,-1.1 -0.2,-2.6 -0.2,-2.6s1.3,1.5 0.9,2.6c-0.4,1 -0.7,1.4 -1.7,1.6a3,3 0 0 1 -2,-0.5z" fill-rule="evenodd" fill="#a3afb8" id="path6746"/>
   <path d="m379,94.4c0,2 -1.5,3.4 -3.4,3.4a3.4,3.4 0 0 1 -3.3,-3.3a3.4,3.4 0 0 1 3.3,-3.5a3.4,3.4 0 0 1 3.4,3.4" stroke-width="1.2" stroke-linejoin="round" stroke="#1e1e1e" fill="#eee" id="path6748"/>
   <path d="m374,96.2s2.8,0 3,-1.2c0.3,-1 -0.1,-2.5 -0.1,-2.5s1.3,1.4 0.9,2.5s-0.7,1.4 -1.7,1.6a3,3 0 0 1 -2,-0.4l-0.1,0z" fill-rule="evenodd" fill="#a3afb8" id="path6750"/>
   <path d="m374,104.2c0,1.9 -1.5,3.4 -3.3,3.4a3.4,3.4 0 0 1 -3.4,-3.4a3.4,3.4 0 0 1 3.4,-3.4a3.4,3.4 0 0 1 3.3,3.4" stroke-width="1.2" stroke-linejoin="round" stroke="#1e1e1e" fill="#eee" id="path6752"/>
   <path d="m369.1,106s2.7,0 3,-1.2c0.3,-1 -0.2,-2.5 -0.2,-2.5s1.3,1.4 1,2.5c-0.4,1.1 -0.8,1.4 -1.7,1.6a3,3 0 0 1 -2,-0.4l-0.1,0z" fill-rule="evenodd" fill="#a3afb8" id="path6754"/>
   <path d="m332.3,72.4c0,1.9 -1.5,3.4 -3.3,3.4a3.4,3.4 0 0 1 -3.4,-3.4a3.4,3.4 0 0 1 3.3,-3.4a3.4,3.4 0 0 1 3.4,3.4" stroke-width="1.2" stroke-linejoin="round" stroke="#1e1e1e" fill="#eee" id="path6756"/>
   <path d="m327.4,74.2s2.7,0 3,-1.2c0.3,-1.1 -0.2,-2.5 -0.2,-2.5s1.3,1.4 1,2.5c-0.4,1.1 -0.8,1.4 -1.7,1.6c-0.7,0.2 -1.6,0 -2.1,-0.4z" fill-rule="evenodd" fill="#a3afb8" id="path6758"/>
   <g stroke-width="2.7" id="g6764">
    <path d="m322.1,71.5a2.8,2.8 0 0 1 -2.8,2.9a2.8,2.8 0 0 1 -2.8,-2.9a2.8,2.8 0 0 1 2.8,-2.8a2.8,2.8 0 0 1 2.8,2.8" stroke-width="1.2" stroke-linejoin="round" stroke="#1e1e1e" fill="#eee" id="path6760"/>
    <path d="m318,73s2.3,0 2.5,-1c0.3,-0.9 -0.1,-2 -0.1,-2s1,1.1 0.8,2c-0.4,1 -0.7,1.2 -1.4,1.4a2.5,2.5 0 0 1 -1.8,-0.4z" fill-rule="evenodd" fill="#a3afb8" id="path6762"/>
   </g>
   <g stroke-width="2.7" id="g6770">
    <path d="m322.2,75a2.8,2.8 0 0 1 -2.8,3a2.8,2.8 0 0 1 -2.8,-3a2.8,2.8 0 0 1 2.8,-2.8a2.8,2.8 0 0 1 2.8,2.8" stroke-width="1.2" stroke-linejoin="round" stroke="#1e1e1e" fill="#eee" id="path6766"/>
    <path d="m318,76.5s2.3,0 2.6,-1c0.2,-0.8 -0.2,-2 -0.2,-2s1,1.2 0.8,2c-0.3,1 -0.6,1.2 -1.4,1.4a2.5,2.5 0 0 1 -1.7,-0.4l-0.1,0z" fill-rule="evenodd" fill="#a3afb8" id="path6768"/>
   </g>
   <g stroke-width="2.7" id="g6776">
    <path d="m322.4,80.3a2.8,2.8 0 0 1 -2.8,2.8a2.8,2.8 0 0 1 -2.9,-2.8a2.8,2.8 0 0 1 2.9,-2.9a2.8,2.8 0 0 1 2.8,2.9" stroke-width="1.2" stroke-linejoin="round" stroke="#1e1e1e" fill="#eee" id="path6772"/>
    <path d="m318.3,81.8s2.2,0 2.5,-1c0.2,-1 -0.2,-2.1 -0.2,-2.1s1,1.2 0.8,2c-0.3,1 -0.6,1.3 -1.4,1.4a2.5,2.5 0 0 1 -1.7,-0.3z" fill-rule="evenodd" fill="#a3afb8" id="path6774"/>
   </g>
   <g stroke-width="2.5" id="g6782">
    <path d="m322.7,85.8a3,3 0 0 1 -3,3.1a3,3 0 0 1 -3.1,-3a3,3 0 0 1 3,-3.2a3,3 0 0 1 3,3.1" stroke-width="1.2" stroke-linejoin="round" stroke="#1e1e1e" fill="#eee" id="path6778"/>
    <path d="m318.2,87.4s2.5,0 2.7,-1s-0.2,-2.3 -0.2,-2.3s1.2,1.3 0.9,2.3c-0.4,1 -0.7,1.2 -1.5,1.4a2.6,2.6 0 0 1 -1.9,-0.4z" fill-rule="evenodd" fill="#a3afb8" id="path6780"/>
   </g>
   <path d="m323,93.3c0,1.8 -1.5,3.4 -3.4,3.4a3.4,3.4 0 0 1 -3.3,-3.4a3.4,3.4 0 0 1 3.3,-3.5a3.4,3.4 0 0 1 3.4,3.4" stroke-width="1.2" stroke-linejoin="round" stroke="#1e1e1e" fill="#eee" id="path6784"/>
   <path d="m318,95s2.8,0 3,-1.1c0.3,-1.1 -0.1,-2.6 -0.1,-2.6s1.3,1.5 0.9,2.6c-0.4,1 -0.7,1.4 -1.7,1.6a3,3 0 0 1 -2,-0.5l-0.1,0z" fill-rule="evenodd" fill="#a3afb8" id="path6786"/>
   <g stroke-width="2.4" id="g6792">
    <path d="m322.7,108.5c0,1.8 -1.4,3.2 -3.2,3.2a3.2,3.2 0 0 1 -3.2,-3.2c0,-1.7 1.4,-3.2 3.2,-3.2a3.2,3.2 0 0 1 3.2,3.2" stroke-width="1.2" stroke-linejoin="round" stroke="#1e1e1e" fill="#eee" id="path6788"/>
    <path d="m318,110.2s2.6,0 2.8,-1.1c0.3,-1 -0.1,-2.4 -0.1,-2.4s1.2,1.3 0.8,2.4c-0.3,1 -0.7,1.3 -1.5,1.5c-0.6,0.1 -1.5,-0.1 -2,-0.4z" fill-rule="evenodd" fill="#a3afb8" id="path6790"/>
   </g>
   <path d="m313.6,72.3c0,1.9 -1.6,3.4 -3.4,3.4a3.4,3.4 0 0 1 -3.4,-3.4a3.4,3.4 0 0 1 3.4,-3.4a3.4,3.4 0 0 1 3.4,3.4" stroke-width="1.2" stroke-linejoin="round" stroke="#1e1e1e" fill="#eee" id="path6794"/>
   <path d="m308.6,74s2.7,0 3,-1c0.3,-1.2 -0.2,-2.6 -0.2,-2.6s1.3,1.4 1,2.5c-0.4,1.1 -0.8,1.4 -1.7,1.6a3,3 0 0 1 -2,-0.4l-0.1,-0.1z" fill-rule="evenodd" fill="#a3afb8" id="path6796"/>
   <path d="m305.2,69c0,1.9 -1.5,3.4 -3.4,3.4a3.4,3.4 0 0 1 -3.3,-3.4a3.4,3.4 0 0 1 3.3,-3.4a3.4,3.4 0 0 1 3.4,3.4" stroke-width="1.2" stroke-linejoin="round" stroke="#1e1e1e" fill="#eee" id="path6798"/>
   <path d="m300.3,70.8s2.7,0 3,-1.2c0.2,-1 -0.2,-2.5 -0.2,-2.5s1.3,1.4 1,2.5c-0.5,1.1 -0.8,1.4 -1.8,1.6c-0.6,0.2 -1.5,0 -2,-0.4z" fill-rule="evenodd" fill="#a3afb8" id="path6800"/>
   <path d="m297.2,65.3c0,1.8 -1.5,3.4 -3.3,3.4a3.4,3.4 0 0 1 -3.4,-3.4a3.4,3.4 0 0 1 3.3,-3.5a3.4,3.4 0 0 1 3.4,3.4" stroke-width="1.2" stroke-linejoin="round" stroke="#1e1e1e" fill="#eee" id="path6802"/>
   <path d="m292.3,67s2.7,0 3,-1.1c0.3,-1.1 -0.2,-2.6 -0.2,-2.6s1.3,1.5 1,2.6c-0.4,1 -0.8,1.4 -1.7,1.6a3,3 0 0 1 -2.1,-0.5z" fill-rule="evenodd" fill="#a3afb8" id="path6804"/>
   <path d="m288,63.3c0,1.9 -1.4,3.4 -3.3,3.4a3.4,3.4 0 0 1 -3.4,-3.4a3.4,3.4 0 0 1 3.4,-3.5a3.4,3.4 0 0 1 3.4,3.4" stroke-width="1.2" stroke-linejoin="round" stroke="#1e1e1e" fill="#eee" id="path6806"/>
   <path d="m283.1,65s2.7,0 3,-1.1c0.3,-1.1 -0.2,-2.6 -0.2,-2.6s1.3,1.5 1,2.6c-0.4,1 -0.8,1.4 -1.7,1.6a3,3 0 0 1 -2,-0.5l-0.1,0z" fill-rule="evenodd" fill="#a3afb8" id="path6808"/>
   <path d="m277.2,65.8c0,2 -1.5,3.4 -3.3,3.5a3.4,3.4 0 0 1 -3.4,-3.4a3.4,3.4 0 0 1 3.4,-3.5a3.4,3.4 0 0 1 3.3,3.4" stroke-width="1.2" stroke-linejoin="round" stroke="#1e1e1e" fill="#eee" id="path6810"/>
   <path d="m272.3,67.6s2.7,0 3,-1.1c0.3,-1.2 -0.2,-2.6 -0.2,-2.6s1.3,1.4 1,2.5c-0.4,1.1 -0.8,1.4 -1.7,1.7a3,3 0 0 1 -2,-0.5l-0.1,0z" fill-rule="evenodd" fill="#a3afb8" id="path6812"/>
   <path d="m269.6,73.5c0,1.9 -1.5,3.4 -3.4,3.4a3.4,3.4 0 0 1 -3.3,-3.4a3.4,3.4 0 0 1 3.3,-3.4a3.4,3.4 0 0 1 3.4,3.4" stroke-width="1.2" stroke-linejoin="round" stroke="#1e1e1e" fill="#eee" id="path6814"/>
   <path d="m264.7,75.2s2.7,0 3,-1.1c0.2,-1.1 -0.2,-2.6 -0.2,-2.6s1.3,1.5 0.9,2.6c-0.4,1 -0.7,1.4 -1.7,1.6a3,3 0 0 1 -2,-0.5z" fill-rule="evenodd" fill="#a3afb8" id="path6816"/>
   <path d="m266.4,84.2c0,1.9 -1.5,3.4 -3.3,3.4a3.4,3.4 0 0 1 -3.4,-3.4a3.4,3.4 0 0 1 3.3,-3.4a3.4,3.4 0 0 1 3.4,3.3" stroke-width="1.2" stroke-linejoin="round" stroke="#1e1e1e" fill="#eee" id="path6818"/>
   <path d="m261.5,86s2.7,-0.1 3,-1.2c0.3,-1.1 -0.2,-2.6 -0.2,-2.6s1.3,1.5 1,2.6c-0.4,1 -0.8,1.4 -1.7,1.6a3,3 0 0 1 -2.1,-0.5l0,0.1z" fill-rule="evenodd" fill="#a3afb8" id="path6820"/>
   <path d="m267.8,95.3c0,2 -1.5,3.5 -3.3,3.5a3.4,3.4 0 0 1 -3.4,-3.4a3.4,3.4 0 0 1 3.3,-3.5a3.4,3.4 0 0 1 3.4,3.4" stroke-width="1.2" stroke-linejoin="round" stroke="#1e1e1e" fill="#eee" id="path6822"/>
   <path d="m262.9,97.1s2.7,0 3,-1.2c0.3,-1 -0.2,-2.5 -0.2,-2.5s1.3,1.4 1,2.5c-0.4,1.1 -0.8,1.4 -1.7,1.7a3,3 0 0 1 -2,-0.5l-0.1,0z" fill-rule="evenodd" fill="#a3afb8" id="path6824"/>
   <path d="m273,105.5c0,1.8 -1.5,3.4 -3.4,3.4a3.4,3.4 0 0 1 -3.3,-3.4a3.4,3.4 0 0 1 3.3,-3.5a3.4,3.4 0 0 1 3.4,3.4" stroke-width="1.2" stroke-linejoin="round" stroke="#1e1e1e" fill="#eee" id="path6826"/>
   <path d="m268,107.2s2.8,0 3,-1.1c0.3,-1.1 -0.1,-2.6 -0.1,-2.6s1.3,1.4 1,2.5c-0.5,1.1 -0.8,1.4 -1.7,1.7a3,3 0 0 1 -2.1,-0.5l-0.1,0z" fill-rule="evenodd" fill="#a3afb8" id="path6828"/>
   <g stroke-width="2.8" id="g6834">
    <path d="m278.853208,118.180576a2.053805,3.27457 0 0 1 -1.144773,3.816394a2.053805,3.27457 0 0 1 -2.93124,-2.72428a2.053805,3.27457 0 0 1 1.144773,-3.816394a2.053805,3.27457 0 0 1 2.93124,2.72428" stroke-linejoin="round" stroke="#1e1e1e" fill="#eee" id="path6830"/>
    <path d="m276.3,120.7s1.6,-0.5 1.5,-1.6c0,-1.1 -0.7,-2.4 -0.7,-2.4s1.1,1.1 1.2,2.3c0,1 -0.1,1.4 -0.6,1.8c-0.3,0.2 -1,0.2 -1.4,-0.1z" fill-rule="evenodd" fill="#a3afb8" id="path6832"/>
   </g>
   <g stroke-width="2.8" id="g6840">
    <path d="m365.824948,118.832504a2.06427,3.29134 0 0 1 -2.845012,2.78958a2.06427,3.29134 0 0 1 -1.25177,-3.80094a2.06427,3.29134 0 0 1 2.845012,-2.78958a2.06427,3.29134 0 0 1 1.25177,3.80094" stroke-linejoin="round" stroke="#1e1e1e" fill="#eee" id="path6836"/>
    <path d="m362.3,119.8s1.7,0.4 2.1,-0.7c0.5,-1 0.5,-2.5 0.5,-2.5s0.5,1.6 0,2.6s-0.8,1.3 -1.4,1.3c-0.4,0.1 -1,-0.3 -1.2,-0.7z" fill-rule="evenodd" fill="#a3afb8" id="path6838"/>
   </g>
  </g>
  <path d="m316.7,53.8l0.3,5.7s-6.8,0.6 -7,1.2c-1.4,3 1.5,7 1.5,7s2.3,-1.8 8,-1.8c5.5,0 8.3,1.4 8.3,1.4s1.4,-2.3 1.4,-4c0,-1.7 -0.6,-3.4 -0.6,-3.4l-3.6,-0.4l-2.5,0l-0.2,-5.8l-5.6,0.1z" stroke-width="1.2" stroke="#000" fill-rule="evenodd" fill="#b3a192" id="path6844"/>
  <path d="m326.4,62.6c0,0.7 -0.6,1.2 -1.2,1.2c-0.7,0 -1.3,-0.5 -1.3,-1.1c0,-0.7 0.6,-1.2 1.2,-1.2c0.7,0 1.2,0.5 1.3,1.1m2.7,0.7c0,0.6 -0.5,1.2 -1.2,1.2s-1.3,-0.6 -1.3,-1.2c0,-0.7 0.6,-1.2 1.3,-1.2c0.7,0 1.2,0.5 1.2,1.2m-5.5,-0.7c0,0.6 -0.6,1.2 -1.2,1.2c-0.7,0 -1.2,-0.6 -1.2,-1.2s0.5,-1.2 1.1,-1.2c0.7,0 1.3,0.6 1.3,1.2m-5.6,0c0,0.7 -0.6,1.3 -1.3,1.3c-0.7,0 -1.2,-0.6 -1.2,-1.2c0,-0.7 0.5,-1.2 1.2,-1.2s1.3,0.5 1.3,1.2m-3.1,0.2c0,0.6 -0.6,1.2 -1.3,1.2c-0.7,0 -1.2,-0.5 -1.2,-1.2s0.5,-1.2 1.2,-1.2s1.3,0.5 1.3,1.2m5.7,-3.5c0,0.6 -0.5,1 -1,1a1,1 0 0 1 -1.2,-1c0,-0.6 0.5,-1 1.1,-1c0.6,0 1,0.4 1,1m0,-4.7c0,0.5 -0.4,1 -1,1a1,1 0 0 1 -1,-1c0,-0.6 0.4,-1 1,-1s1,0.4 1,1m0,2.5c0,0.6 -0.4,1 -1,1s-1,-0.4 -1,-1c0,-0.5 0.4,-1 1,-1s1,0.4 1,1m-8.8,6.5c0,0.7 -0.5,1.2 -1.2,1.2c-0.6,0 -1.2,-0.5 -1.2,-1.2c0,-0.6 0.5,-1.1 1.2,-1.1s1.2,0.5 1.2,1.1" stroke-width="0.6" stroke-linejoin="round" stroke="#121116" fill="#f0ddcb" id="path6846"/>
  <path d="m320.9,62.4c0,0.7 -0.6,1.2 -1.4,1.2a1.3,1.3 0 0 1 -1.3,-1.2c0,-0.7 0.6,-1.3 1.3,-1.3c0.7,0 1.3,0.6 1.3,1.3" stroke-width="0.6" stroke-linejoin="round" stroke="#4d3126" fill="#916c68" id="path6848"/>
  <g stroke-width="2.5" id="g6854">
   <path d="m322,45.5a2.5,2.5 0 0 1 -2.4,2.5a2.5,2.5 0 0 1 -2.5,-2.5a2.5,2.5 0 0 1 2.5,-2.6a2.5,2.5 0 0 1 2.5,2.5" stroke-width="1.2" stroke-linejoin="round" stroke="#1e1e1e" fill="#eee" id="path6850"/>
   <path d="m318.4,46.8s2,0 2.2,-1c0.2,-0.7 -0.1,-1.8 -0.1,-1.8s1,1 0.7,1.9c-0.3,0.8 -0.6,1 -1.2,1.2a2.2,2.2 0 0 1 -1.6,-0.3z" fill-rule="evenodd" fill="#a3afb8" id="path6852"/>
  </g>
  <path d="m280,130.1s2.2,2.1 2.8,4c0.6,1.8 1.5,6.8 1.5,6.8s23.2,-6.5 34.6,-6c11.4,0.6 37.7,6.3 37.7,6.3l1,-5.7c0.5,-3 2.7,-6.3 2.7,-6.3s-25.1,-7.8 -41,-7a116,116 0 0 0 -27.3,3.5a258.5,258.5 0 0 0 -12,4.4z" stroke-width="0.5" stroke="#000" fill-rule="evenodd" fill="#fc0" id="path6856"/>
  <path d="m314.7,36l10,0s-2.5,1.7 -3,3.4c-0.4,1.4 -0.3,3.7 -0.3,3.7s2.7,0 4,-1a78.8,78.8 0 0 1 3.7,-2.9l0,12.7s-2.5,-2.3 -4,-3.1a14.4,14.4 0 0 0 -3.5,-1.3s0,2 0.8,3.3s4.3,5.8 4.3,5.8l-14.3,0.5s3.4,-3.5 4.8,-6.1c0.9,-1.7 0.5,-3.5 0.5,-3.5s-2.4,0 -3.6,0.9c-1.3,0.8 -3.4,3.3 -3.4,3.3l0,-12.2s1,2.4 3,3.3c2,0.9 3.8,0.4 3.8,0.4s0.4,-2.4 -0.4,-4c-0.8,-1.5 -2.6,-3.2 -2.4,-3.1l0,-0.1z" stroke-width="1.2" stroke="#000" fill-rule="evenodd" fill="#fc0" id="path6858"/>
  <path d="m313.9,76.5s-7.1,-0.1 -13.2,-3.7s-12.3,-7.4 -21.3,-5.3c-1.8,0.5 -8.6,3.5 -11.6,13.2a26,26 0 0 0 2.4,18.7a50.2,50.2 0 0 0 5.6,7.4l3.7,-2.5s-9.3,-8 -8.2,-18.2c1,-10.3 6.2,-12.7 6.2,-12.7s6.4,-5 14.9,-0.3a80,80 0 0 0 25.3,8.7c0.6,-0.1 -4,-5.4 -3.8,-5.3z" stroke-width="1.2" stroke="#121116" fill-rule="evenodd" fill="#fc0" id="path6860"/>
  <path d="m274.5,115l-3.8,-7.4l11.4,-4.4s-2.8,3.6 -3.4,6.2c-0.8,3.2 -0.5,5.9 -0.5,5.9s1,-0.8 2.3,-2.9c1,-1.5 2.6,-7.3 2.6,-7.3l5.1,16.3s-2.6,-2.6 -4.5,-2.9c-2,-0.4 -4.6,0.3 -4.6,0.3l-3,1l-1.6,-4.8z" stroke-width="1.2" stroke="#000" fill-rule="evenodd" fill="#fc0" id="path6862"/>
  <path d="m326.7,76.3s7.1,0 13.2,-3.7c6.1,-3.6 12.2,-7.3 21.3,-5.2c1.8,0.4 8.6,3.4 11.6,13.1a26,26 0 0 1 -2.5,18.7a116.7,116.7 0 0 1 -3.6,5.9l-4.4,-1.6s8.1,-7.3 7,-17.6c-1.1,-10.3 -6.2,-12.7 -6.2,-12.7s-6.4,-5 -14.9,-0.2c-8.5,4.7 -16.8,6.8 -16.8,6.8s-7.8,2 -8.5,1.8c-0.7,0 4,-5.4 3.8,-5.3z" stroke-width="1.2" stroke="#121116" fill-rule="evenodd" fill="#fc0" id="path6864"/>
  <path d="m323,69.3l3,0l0,27.7l-3,0l0,-27.7zm-10,27.5l3.5,0l0,27.7l-3.5,0l0,-27.7z" stroke-width="1.2" stroke-linejoin="round" stroke="#121116" fill="#fc0" id="path6866"/>
  <path d="m329.2,62.7c0,5 -4.3,9 -9.7,9c-5.3,0 -9.7,-4 -9.7,-9c0,-4.9 4.3,-8.9 9.6,-8.9c5.4,0 9.8,4 9.8,8.9" stroke-width="1.2" stroke-linejoin="round" stroke="#121116" fill="#fc0" id="path6868"/>
  <path d="m310.9,96.8l16.7,-0.2s-2,1.2 -3.7,4.2c-1.6,3 -1.4,4.8 -1.4,4.8s2.5,0 4.3,-1.3a25.9,25.9 0 0 0 3.8,-3.7l0,15.3s-1.3,-2 -3.3,-3c-2,-1.3 -4.8,-1.3 -4.8,-1.3l-5.7,0s-2.6,0.2 -3.7,1a29,29 0 0 0 -3.7,3.2l-0.3,-14.6s0.8,2.6 3.5,3.6s4.2,1 4.2,1s0,-3.4 -1.4,-5a33,33 0 0 0 -4.5,-4z" stroke="#000" fill-rule="evenodd" fill="#fc0" id="path6870"/>
  <path d="m320.2,108.8s2.4,5.7 5.3,8.2c1.6,1.5 6.6,2.6 8.8,2c5,-1.3 8.6,-5.3 8.6,-5.3s-0.2,4.4 3,6.9c3.1,2.4 5.6,3 8.2,2.3c2.7,-0.7 10,-6.2 10,-6.2l1.6,1.3s-4.3,4.2 -8.7,6.3c-2.3,1.2 -9.3,0.5 -11.5,-1.3c-2.3,-1.8 -3.6,-6.1 -3.6,-6.1s-1.4,2.8 -4.4,3.8c-3,1 -7,1 -10.9,-0.2c-2.5,-0.8 -5.9,-4.3 -6.5,-5.5c-0.6,-1.1 -0.4,-1.8 -0.4,-1.8s-2,5.4 -5.8,6.9a18.7,18.7 0 0 1 -11.5,0.4c-3.6,-1 -3.9,-3.1 -3.9,-3.1s-0.2,5.7 -8,7.3c-8,1.6 -14.2,-4.1 -14.2,-4.1l1.1,-1.7s4.4,5 11.2,4.6c6.8,-0.5 9,-9.2 9,-9.2s3,4.5 11,4.6c7.9,0.1 10.2,-10.3 10.2,-10.3l1.4,0.2z" stroke-width="0.9" stroke="#000" fill-rule="evenodd" fill="#f6ca1f" id="path6872"/>
  <g stroke-width="1.1" stroke="#000" fill="#fc0" id="g6882">
   <path d="m300.6,112.1s0,-2.7 0.7,-3.6c0.8,-1.1 2,-1.2 2.6,-1c0.7,0.2 1.4,0.8 1.3,2.8c-0.1,1.9 -0.7,2.8 0,3.6c0.5,0.7 0.6,1.2 1.7,1c1,-0.2 1.6,-0.5 1.3,-1.5s-0.5,0 -0.7,-0.8c-0.2,-0.9 1,-4.6 0.8,-6.9c-0.2,-2.2 -1,-4 -2.8,-4.5c-1.6,-0.4 -3,-0.4 -4.5,0.7c-1.4,1 -3.3,4.5 -3.3,4.5l0,7.5l3,-0.2l0,-1.6l-0.1,0z" fill-rule="evenodd" id="path6874"/>
   <path d="m295,114.1s-1.2,-2.5 -2,-3a2.5,2.5 0 0 0 -2.8,0c-0.6,0.5 -1,1.4 -0.1,3.1c0.8,1.7 1.7,2.4 1.4,3.3c-0.2,0.9 0,1.4 -1.1,1.7c-1.1,0.3 -1.7,0.1 -1.9,-1c-0.2,-1 0.6,0 0.4,-1c-0.1,-0.8 -2.8,-3.7 -3.5,-5.9c-0.7,-2.1 -0.6,-4.1 0.8,-5.2c1.3,-1 2.5,-1.6 4.3,-1.2c1.8,0.4 4.9,2.9 4.9,2.9l3,6.8l-2.8,1l-0.6,-1.5z" fill-rule="evenodd" id="path6876"/>
   <path d="m294.4,92.1s-3,5 -2.3,8.8c0.7,3.8 4.6,12 4.6,12l0,1l2.2,-0.2l-0.5,-1.1s1,-9.8 0.4,-12.9a33,33 0 0 0 -4.4,-7.6zm4.7,22.7s1.5,1.7 3.2,2.6c2,0.9 2.8,1 3.5,0.3c0.6,-0.4 0.4,-2.2 -0.3,-2.7c-0.6,-0.5 -1.4,-0.2 -1.5,0.3c-0.2,0.8 -0.4,0.8 -1,0.4c-1,-0.4 -3,-1.7 -3,-1.7l-0.9,0.8zm-2.3,0.4s-0.6,2.2 -1.8,3.7c-1.4,1.6 -2.1,2 -3,1.7c-0.7,-0.1 -1.3,-1.8 -0.9,-2.6c0.4,-0.7 1.2,-0.8 1.5,-0.4c0.5,0.7 0.7,0.6 1.1,0l2,-2.7l1.1,0.2l0,0.1z" fill-rule="evenodd" id="path6878"/>
   <path d="m302.4,113.4c0.2,0.6 -1.8,1.5 -4.3,1.9c-2.5,0.4 -4.6,0.3 -4.8,-0.4c0,-0.6 1.9,-1.5 4.4,-2c2.5,-0.4 4.6,-0.2 4.7,0.5" stroke-linejoin="round" id="path6880"/>
  </g>
  <g stroke-width="1.1" stroke="#000" fill="#fc0" id="g6892">
   <path d="m345.6,113.2s1,-2.5 2,-3.1c1.1,-0.8 2.2,-0.5 2.7,0c0.6,0.3 1,1.2 0.3,3c-0.8,1.7 -1.6,2.4 -1.4,3.3c0.3,1 0.2,1.4 1.3,1.6c1.1,0.3 1.7,0.1 1.8,-1c0.1,-1 -0.5,0 -0.4,-1c0,-0.8 2.6,-3.9 3.2,-6c0.6,-2.3 0.4,-4.2 -1,-5.3c-1.4,-1 -2.7,-1.4 -4.5,-0.9c-1.7,0.5 -4.7,3.1 -4.7,3.1l-2.6,7l2.9,0.9l0.4,-1.6z" fill-rule="evenodd" id="path6884"/>
   <path d="m339.7,113.1s-0.2,-2.7 -0.9,-3.5c-0.9,-1.1 -2,-1.1 -2.6,-1c-0.7,0.3 -1.4,1 -1.2,2.9c0.2,2 0.8,2.8 0.3,3.6c-0.6,0.8 -0.6,1.2 -1.7,1.1c-1.1,0 -1.7,-0.4 -1.5,-1.4c0.2,-1 0.6,0 0.8,-0.9c0.1,-0.8 -1.3,-4.5 -1.2,-6.8c0,-2.2 0.8,-4 2.5,-4.6c1.6,-0.5 3,-0.6 4.5,0.5c1.5,1 3.6,4.3 3.6,4.3l0.4,7.4l-3,0l0,-1.6z" fill-rule="evenodd" id="path6886"/>
   <path d="m346.8,92.3s-4.5,3.6 -5.2,7.4c-0.7,3.8 0.1,12.8 0.1,12.8l-0.3,1l2,0.6l0,-1.2s4.4,-8.8 4.9,-12a32,32 0 0 0 -1.5,-8.6zm-3.5,22.9s0.8,2.1 2.1,3.5c1.5,1.6 2.2,1.9 3.1,1.6c0.7,-0.2 1.1,-2 0.7,-2.6c-0.4,-0.7 -1.2,-0.7 -1.5,-0.3c-0.5,0.7 -0.7,0.5 -1.1,0a77.7,77.7 0 0 1 -2.2,-2.6l-1.1,0.4zm-2.3,-0.5s-1.3,1.9 -3,2.8c-1.9,1.1 -2.7,1.2 -3.5,0.6c-0.6,-0.3 -0.5,-2.1 0.1,-2.7c0.7,-0.5 1.4,-0.3 1.6,0.2c0.2,0.8 0.5,0.7 1,0.4l2.8,-2l1,0.7z" fill-rule="evenodd" id="path6888"/>
   <path d="m346.9,115c-0.1,0.7 -2.3,0.8 -4.8,0.3s-4.4,-1.4 -4.3,-2c0.1,-0.7 2.3,-0.8 4.8,-0.3s4.4,1.4 4.3,2" stroke-linejoin="round" id="path6890"/>
  </g>
  <path d="m279,129.9s0.6,2 1.7,1c1.2,-1.1 17.3,-7.5 40,-7.5s37.5,6.3 38.4,6.7c0.9,0.3 1.3,0.8 2,0c0.8,-1 -0.7,-2.3 -0.7,-2.3s-15.8,-6.7 -40.4,-6.6c-24.7,0.1 -40.6,7.1 -40.6,7.1s-1,0.8 -0.3,1.6l-0.1,0z" stroke-width="0.5" stroke="#000" fill-rule="evenodd" fill="#cca715" id="path6894"/>
  <path d="m307.9,139.3s0.7,-2 2,-2.4c1,-0.3 2.5,0.7 2.5,0.7s-1.9,-0.2 -2.5,0.2c-0.5,0.3 -0.7,1.2 -0.7,1.2s0.4,-0.8 1.9,-0.7l1.6,0s-2.5,0.3 -3,1c-0.6,0.7 2.3,1 2.3,1s-4.5,0 -5,-0.2c-0.6,-0.3 -1,-1.2 -2,-1c-1,0.4 -2,1.3 -2,1.3s1.1,-2 1.8,-2s1.2,0 1.8,0.3l1.3,0.6zm-16.8,3.6s0.3,-2 1.5,-2.7c1,-0.5 2.7,0.2 2.7,0.2s-2,0.2 -2.5,0.6c-0.4,0.4 -0.4,1.4 -0.4,1.4s0.3,-0.8 1.7,-1a68.5,68.5 0 0 0 1.6,-0.3s-2.4,0.7 -2.8,1.5c-0.5,0.8 2.5,0.6 2.5,0.6s-4.4,0.8 -5,0.7c-0.7,-0.2 -1.2,-1 -2.1,-0.5c-1,0.4 -1.8,1.5 -1.8,1.5s0.8,-2.1 1.5,-2.3c0.7,-0.1 1,-0.2 1.8,0l1.3,0.3zm30.9,-4.3s0.8,-2 2,-2.3c1.1,-0.3 2.7,0.8 2.7,0.8s-2,-0.3 -2.6,0c-0.5,0.3 -0.7,1.2 -0.7,1.2s0.4,-0.7 1.9,-0.5l1.6,0.1s-2.5,0 -3.1,0.8c-0.6,0.6 2.3,1.1 2.3,1.1s-4.5,-0.2 -5,-0.5c-0.6,-0.3 -1,-1.2 -2,-1c-1,0.2 -2,1 -2,1s1.2,-1.8 1.9,-1.8s1.1,0 1.8,0.4l1.2,0.7zm14.1,1.6s1,-1.9 2.4,-2c1,-0.2 2.4,1 2.4,1s-1.8,-0.4 -2.5,-0.2c-0.6,0.2 -0.9,1 -0.9,1s0.5,-0.6 2,-0.3l1.6,0.4s-2.5,-0.2 -3.2,0.4c-0.7,0.6 2.1,1.4 2.1,1.4s-4.4,-0.8 -5,-1.1c-0.4,-0.4 -0.7,-1.4 -1.7,-1.3c-1,0.1 -2.2,0.8 -2.2,0.8s1.5,-1.6 2.2,-1.5c0.7,0 1.1,0.1 1.7,0.5l1.1,0.9zm14,2.5s1,-1.4 2.1,-1.5c0.9,0 1.9,1.1 1.9,1.1s-1.5,-0.5 -2,-0.4c-0.5,0.1 -0.8,0.8 -0.8,0.8s0.5,-0.5 1.6,-0.1l1.3,0.4s-2,-0.4 -2.6,0c-0.6,0.5 1.6,1.4 1.6,1.4s-3.5,-1 -4,-1.3c-0.3,-0.3 -0.4,-1.1 -1.2,-1.1c-0.9,0 -1.9,0.5 -1.9,0.5s1.3,-1.3 1.9,-1.1c0.5,0 0.9,0.2 1.3,0.5l0.9,0.8l-0.1,0z" fill-rule="evenodd" id="path6896"/>
  <path d="m305,129.7c0.4,1.7 -1.6,3.5 -4.4,4c-2.8,0.6 -5.3,-0.3 -5.6,-2c-0.3,-1.6 1.6,-3.4 4.4,-4c2.8,-0.6 5.3,0.3 5.6,2z" stroke-width="0.7" stroke-linejoin="round" stroke="#000" fill="#0f6545" id="path6898"/>
  <path d="m298.8,129.4c0,0.4 -0.4,0.9 -1,1c-0.6,0.1 -1.2,-0.1 -1.3,-0.5c0,-0.4 0.4,-0.8 1,-1c0.6,0 1.2,0.1 1.3,0.5z" fill="#cecfc1" id="path6900"/>
  <path d="m344.1,131.8c-0.5,1.6 -3,2.2 -5.8,1.4c-2.7,-0.9 -4.4,-2.9 -4,-4.5c0.6,-1.6 3.2,-2.3 5.9,-1.4c2.7,0.8 4.5,2.8 4,4.4l-0.1,0.1z" stroke-width="0.7" stroke-linejoin="round" stroke="#000" fill="#0f6545" id="path6902"/>
  <path d="m338.8,128.5c-0.2,0.4 -0.7,0.6 -1.3,0.4c-0.6,-0.2 -1,-0.7 -0.9,-1c0.1,-0.5 0.7,-0.6 1.3,-0.5c0.6,0.2 1,0.7 0.9,1l0,0.1z" fill="#cecfc1" id="path6904"/>
  <path d="m314.6,126l10.1,0l0,5l-10.1,0l0,-5z" stroke-linejoin="round" stroke="#000" fill="#1f2d86" id="path6906"/>
  <path d="m318.9,127c0,0.3 -0.4,0.5 -1,0.5s-1,-0.2 -1,-0.5c0,-0.2 0.5,-0.4 1,-0.4s1,0.2 1,0.4z" fill="#707c8b" id="path6908"/>
  <path d="m286,131l1.6,5l-3,1.7s-1.5,1 -3,0.2c-1.4,-0.7 -2.2,-3 -1.4,-4c1.5,-1.8 5.7,-3 5.7,-2.9l0.1,0z" stroke-width="0.5" stroke="#000" fill-rule="evenodd" fill="#9f1209" id="path6910"/>
  <path d="m283.4,134.6c0,0.8 -0.7,1.5 -1.5,1.5s-1.4,-0.7 -1.4,-1.5c0,-0.9 0.6,-1.5 1.4,-1.5s1.5,0.6 1.5,1.5z" fill="#8f322f" id="path6912"/>
  <path d="m282,134a0.8,0.8 0 0 1 -0.2,0.7a0.4,0.4 0 0 1 -0.5,0a0.8,0.8 0 0 1 -0.4,-0.5a0.8,0.8 0 0 1 0.2,-0.7a0.4,0.4 0 0 1 0.5,-0.1c0.2,0 0.4,0.3 0.4,0.6z" fill="#e2a494" id="path6914"/>
  <path d="m353.9,131.7l-1.7,4.4l4,2s1.7,0.8 2.8,-0.1c1,-0.8 1.2,-2.8 0.4,-3.7c-0.7,-1 -5.6,-2.6 -5.5,-2.6z" stroke-width="0.5" stroke="#000" fill-rule="evenodd" fill="#9f1209" id="path6916"/>
  <path d="m358.6,135.2c0,0.6 -0.6,1 -1.3,1s-1.2,-0.4 -1.2,-1s0.6,-1 1.2,-1c0.7,0 1.3,0.5 1.3,1z" fill="#aa675d" id="path6918"/>
  <path d="m357.4,135c0,0.3 -0.1,0.6 -0.3,0.7a0.5,0.5 0 0 1 -0.6,0a0.8,0.8 0 0 1 -0.3,-0.6c0,-0.3 0.1,-0.5 0.3,-0.6a0.5,0.5 0 0 1 0.6,0c0.2,0 0.3,0.3 0.3,0.6l0,-0.1z" fill="#e2a494" id="path6920"/>
  <path d="m328.6,126.4a0.7,0.7 0 0 1 -0.8,0.7a0.7,0.7 0 0 1 -0.7,-0.7a0.7,0.7 0 0 1 0.7,-0.7c0.4,0 0.8,0.3 0.8,0.7zm4.3,0.2a0.7,0.7 0 0 1 -0.7,0.7a0.7,0.7 0 0 1 -0.8,-0.7a0.7,0.7 0 0 1 0.8,-0.6c0.3,0 0.7,0.2 0.7,0.6zm-2.2,1.7c0,0.5 -0.4,0.9 -1,0.9s-0.8,-0.4 -0.8,-0.9s0.4,-0.9 0.9,-0.9s0.9,0.4 0.9,1l0,-0.1zm2,2.8a0.7,0.7 0 0 1 -0.6,0.7a0.7,0.7 0 0 1 -0.8,-0.7a0.7,0.7 0 0 1 0.7,-0.7c0.5,0 0.8,0.3 0.8,0.7l-0.1,0zm-4.1,-0.5a0.7,0.7 0 0 1 -0.7,0.7a0.7,0.7 0 0 1 -0.7,-0.7a0.7,0.7 0 0 1 0.7,-0.7c0.4,0 0.7,0.3 0.7,0.7zm-20.9,-3.5a0.7,0.7 0 0 1 -0.5,0.8a0.7,0.7 0 0 1 -0.9,-0.5a0.7,0.7 0 0 1 0.6,-0.8a0.7,0.7 0 0 1 0.8,0.5zm4.3,-0.7a0.7,0.7 0 0 1 -0.6,0.8a0.7,0.7 0 0 1 -0.8,-0.5a0.7,0.7 0 0 1 0.5,-0.8a0.7,0.7 0 0 1 0.9,0.5zm-1.8,2.1c0.1,0.5 -0.2,1 -0.6,1a0.9,0.9 0 0 1 -1.1,-0.6c-0.1,-0.4 0.2,-1 0.7,-1a0.9,0.9 0 0 1 1,0.6zm2.7,2.3a0.7,0.7 0 0 1 -0.5,0.8a0.7,0.7 0 0 1 -0.9,-0.5a0.7,0.7 0 0 1 0.5,-0.8a0.7,0.7 0 0 1 0.9,0.5zm-4.2,0.4a0.7,0.7 0 0 1 -0.5,0.8a0.7,0.7 0 0 1 -0.9,-0.5a0.7,0.7 0 0 1 0.6,-0.8a0.7,0.7 0 0 1 0.8,0.5zm-19.2,-0.2a0.7,0.7 0 0 1 -0.4,1a0.7,0.7 0 0 1 -0.9,-0.4a0.7,0.7 0 0 1 0.4,-1a0.7,0.7 0 0 1 1,0.4l-0.1,0zm4.1,-1.3a0.7,0.7 0 0 1 -0.4,1a0.7,0.7 0 0 1 -0.9,-0.5a0.7,0.7 0 0 1 0.4,-0.9a0.7,0.7 0 0 1 1,0.4l-0.1,0zm-1.4,2.4a0.9,0.9 0 0 1 -0.5,1a0.9,0.9 0 0 1 -1.1,-0.4a0.9,0.9 0 0 1 0.5,-1.1a0.9,0.9 0 0 1 1.1,0.5zm3,1.8a0.7,0.7 0 0 1 -0.4,1c-0.4,0 -0.8,-0.1 -1,-0.5s0.1,-0.7 0.5,-0.9a0.7,0.7 0 0 1 0.9,0.4zm-4.1,1a0.7,0.7 0 0 1 -0.4,1a0.7,0.7 0 0 1 -1,-0.4a0.7,0.7 0 0 1 0.5,-1a0.7,0.7 0 0 1 1,0.4l-0.1,0zm56.2,-5.8c-0.1,0.4 -0.5,0.6 -1,0.5a0.8,0.8 0 0 1 -0.5,-1c0,-0.3 0.5,-0.5 1,-0.4c0.3,0 0.6,0.5 0.5,0.9zm4.4,1.3c0,0.4 -0.5,0.7 -0.9,0.6a0.8,0.8 0 0 1 -0.6,-1c0.1,-0.3 0.5,-0.6 1,-0.5c0.4,0.1 0.6,0.5 0.5,1l0,-0.1zm-2.7,1.2a1,1 0 0 1 -1.1,0.7a1,1 0 0 1 -0.8,-1.1a1,1 0 0 1 1.2,-0.7c0.5,0.1 0.8,0.6 0.7,1.1zm1.5,3.5c-0.1,0.4 -0.5,0.6 -1,0.5a0.8,0.8 0 0 1 -0.5,-0.9c0,-0.4 0.5,-0.6 0.9,-0.5c0.4,0.1 0.7,0.5 0.6,1l0,-0.1zm-4.3,-1.6c0,0.4 -0.5,0.6 -0.9,0.5a0.8,0.8 0 0 1 -0.5,-0.9c0,-0.4 0.5,-0.6 0.9,-0.5c0.4,0 0.6,0.5 0.5,0.9z" fill="#f5d8bc" id="path6922"/>
  <path d="m356,89s-2,1.9 -4.5,1.9a7,7 0 0 1 -4.6,-1.6c-0.8,-0.5 0.2,-2 0.2,-2" stroke-width="1.2" stroke="#000" fill="none" id="path6924"/>
  <path d="m312.9,92.8s-3.7,-0.7 -5.3,-1.2c-1.5,-0.5 -1.1,-1.5 -3,-1.4c-1.7,0.1 -3.5,1.4 -3.1,3.2c0.4,1.8 1.7,2 3,1.7c1.2,-0.4 0.8,-2.6 -0.8,-2.4c-1.7,0 -0.3,1.5 -0.3,1.5" stroke-width="1.1" stroke="#000" fill="none" id="path6926"/>
  <path d="m287.3,90s1,1.5 3.7,1.2c2.7,-0.2 3.7,-1.6 3.8,-2.3c0.2,-0.6 0,-1.8 -0.5,-2.3c-0.5,-0.5 -2.3,-0.7 -2.3,-0.7" stroke="#000" fill="none" id="path6928"/>
  <g stroke-width="1.6" stroke="#161111" id="g6934">
   <path d="m339.2,270.4c2.5,-2.5 6.5,-5.2 8.7,-11c2,-5.6 3,-15.7 5,-20.8c2.5,-8.8 7.5,-17.4 1.5,-16.8c-5.7,0.6 -7.5,6 -9.6,10c-1,1.5 -3.3,4.7 -3.7,6.5c-0.1,-3 -1.7,-11.9 -2,-20.8c-0.3,-8.4 0,-17 -0.3,-20.3c-0.2,-4.3 -0.2,-8.3 -1.2,-11.4c-0.5,-1.5 -2.6,-3 -3.8,-2.9c-2.2,0 -3.6,2 -4,3.9l-0.2,2.8c-0.2,2.4 0,5.5 -0.2,8.3c-0.1,3 0.2,6.2 0,9c-0.2,5.4 -0.6,10.5 -0.8,11.5c0,-2 -1,-11.7 -1.3,-20.9l-0.2,-10c0,-2.6 0,-5.4 -0.2,-7.4c-0.5,-3.4 -1.6,-5 -4,-5c-1.8,0 -4.2,1.3 -5,5c-0.3,2.1 -0.4,4.6 -0.3,7.4l0.2,8c-0.2,10.5 -0.4,21.5 -0.8,24.8c0,-1 -1.1,-6.5 -1.4,-13.9l-0.4,-9.6l-0.3,-9.6c0,-1.6 -0.7,-6.2 -3.7,-6c-1.7,-0.2 -3.4,1 -4,5.3c-0.4,2.5 -0.4,6.6 -0.5,9.9c-0.1,6 -0.4,11.4 0,16.9l0.1,7.7c0,0.4 -0.9,-2.9 -1.3,-7.4l-0.8,-8.6c0,-2.3 -0.1,-5.7 -0.3,-8.5c-0.2,-2.1 -0.1,-4.5 -2.5,-4.3c-2.4,0.1 -3.8,1 -4.3,5c-0.4,2.7 -0.4,8.5 -0.5,10.5c0.2,5.3 -1.2,17.7 -1.8,21.2c-0.2,2.5 -1.2,5.7 -1.6,9.2a70,70 0 0 0 1,20.6c2,7 7,10.2 6.8,15c-0.3,4.8 0,13.3 0,17c0,3.8 3.3,4 10,2.6c11.2,-2.4 17.3,2.4 26.4,-1.2c-1.1,-10.4 1.1,-16.7 1,-20.5l0.3,-1.2zm-6.8,-23.5c2.3,-6.4 5.2,-8.9 8,-10.2" fill="#c00" id="path6930"/>
   <path d="m307.4,239.2c3.5,-1.4 7,-2.4 10.6,-3.6c4.3,-1.2 8.5,-3 13,-3.6c2,-0.5 4.2,-1 6.4,-1m-36.1,42c0.4,-0.3 1,0.2 1.4,0.3c0.6,0.2 1.3,0.4 2,0.3a107.4,107.4 0 0 1 4,0c1.7,0 3,-0.2 4.3,-1m10,0.6l1.6,0.9c0.8,0.3 1.8,0.4 7.3,0c3.5,0.2 6.5,-2.8 7.4,-3.6" fill="none" id="path6932"/>
  </g>
 </g>
</svg>